<?xml version="1.0" standalone="no"?>
<!DOCTYPE svg PUBLIC "-//W3C//DTD SVG 20010904//EN"
 "http://www.w3.org/TR/2001/REC-SVG-20010904/DTD/svg10.dtd">
<svg version="1.0" xmlns="http://www.w3.org/2000/svg"
 width="510.000000pt" height="510.000000pt" viewBox="0 0 510.000000 510.000000"
 preserveAspectRatio="xMidYMid meet">
<metadata>
Created by potrace 1.14, written by Peter Selinger 2001-2017
</metadata>
<g transform="translate(0.000000,510.000000) scale(0.100000,-0.100000)"
fill="#000000" stroke="none">
<path d="M1847 2894 c-4 -4 -7 -37 -7 -73 l1 -66 20 37 c19 37 62 68 94 68 13
0 15 -23 15 -170 l0 -170 -25 -10 c-14 -5 -25 -12 -25 -15 0 -3 41 -5 90 -5
50 0 90 4 90 9 0 5 -10 11 -22 13 -23 3 -23 5 -26 171 -2 143 0 168 13 173 29
12 74 -17 92 -57 21 -49 33 -34 33 44 0 53 -10 71 -25 47 -9 -14 -302 -13
-307 1 -2 5 -7 7 -11 3z"/>
<path d="M4648 2894 c-8 -13 -13 -122 -6 -129 3 -3 11 8 18 24 16 39 39 59 78
67 l32 7 0 -172 0 -171 -25 -10 c-14 -5 -25 -12 -25 -15 0 -3 41 -5 90 -5 50
0 90 4 90 9 0 5 -10 11 -22 13 -23 3 -23 4 -23 173 0 164 1 170 21 173 27 4
72 -32 88 -72 13 -31 13 -31 21 37 8 70 3 89 -17 69 -17 -17 -305 -17 -310 0
-3 7 -7 8 -10 2z"/>
<path d="M182 2876 c-121 -40 -182 -156 -137 -264 42 -99 157 -150 275 -122
55 13 70 32 70 91 0 33 -15 39 -25 9 -3 -11 -20 -33 -36 -50 -25 -24 -39 -30
-73 -30 -82 0 -135 73 -136 188 0 110 37 162 118 162 55 0 76 -11 112 -62 17
-23 30 -37 31 -32 4 34 -5 91 -15 102 -19 19 -134 24 -184 8z"/>
<path d="M2464 2876 c-41 -18 -64 -52 -64 -94 0 -36 4 -41 124 -148 35 -31 46
-48 46 -70 0 -90 -109 -64 -150 36 -19 45 -30 36 -30 -25 0 -61 15 -78 81 -90
81 -15 156 31 166 102 6 47 -14 76 -97 134 -65 45 -88 85 -70 118 7 15 20 21
44 21 36 0 53 -14 82 -70 l19 -35 3 54 c2 30 -1 58 -6 63 -17 17 -115 19 -148
4z"/>
<path d="M3943 2876 c-95 -30 -143 -94 -143 -191 0 -185 208 -269 348 -141
110 99 65 296 -76 336 -47 13 -77 12 -129 -4z m113 -35 c57 -35 86 -138 64
-230 -20 -86 -88 -123 -158 -87 -87 45 -110 257 -35 315 32 26 88 27 129 2z"/>
<path d="M430 2875 c0 -3 11 -10 25 -15 l25 -10 0 -165 0 -165 -27 -12 c-27
-12 -27 -13 20 -16 26 -2 67 -1 90 1 35 3 38 5 20 11 -21 8 -23 14 -23 92 0
114 16 112 95 -9 l60 -92 68 -3 c42 -2 67 1 67 8 0 5 -8 10 -18 10 -22 0 -88
67 -135 138 l-35 53 24 24 c46 46 44 114 -6 140 -21 11 -60 15 -140 15 -60 0
-110 -2 -110 -5z m194 -31 c19 -19 22 -104 4 -122 -7 -7 -25 -12 -40 -12 -28
0 -28 0 -28 68 0 38 3 72 7 75 11 12 41 7 57 -9z"/>
<path d="M860 2870 c0 -5 9 -10 20 -10 19 0 20 -7 20 -175 0 -168 -1 -175 -20
-175 -11 0 -20 -5 -20 -10 0 -7 50 -10 143 -8 l142 3 2 55 c2 47 1 52 -10 36
-33 -54 -56 -67 -105 -64 l-47 3 -3 78 -3 77 41 0 c31 0 47 -6 65 -26 l25 -27
0 62 c0 34 -4 61 -10 61 -5 0 -10 -6 -10 -14 0 -18 -22 -26 -71 -26 l-40 0 3
68 3 67 50 0 c45 0 51 -3 71 -33 27 -39 38 -27 29 28 l-7 40 -134 0 c-83 0
-134 -4 -134 -10z"/>
<path d="M1195 2870 c3 -5 13 -10 21 -10 12 0 14 -29 14 -175 0 -168 -1 -175
-20 -175 -11 0 -20 -4 -20 -10 0 -6 46 -10 118 -10 160 1 217 28 257 122 39
94 4 194 -84 240 -50 26 -62 28 -173 28 -77 0 -117 -4 -113 -10z m256 -48 c60
-67 60 -219 0 -276 -33 -32 -102 -46 -126 -26 -20 17 -22 309 -2 329 22 23 98
7 128 -27z"/>
<path d="M1630 2870 c0 -5 9 -10 20 -10 19 0 20 -7 20 -171 0 -162 -1 -171
-20 -176 -45 -12 -15 -23 60 -23 75 0 105 11 60 23 -19 5 -20 14 -20 172 0
158 1 167 20 172 45 12 15 23 -60 23 -47 0 -80 -4 -80 -10z"/>
<path d="M2685 2870 c3 -5 12 -10 20 -10 10 0 14 -31 17 -137 4 -159 15 -190
83 -223 54 -26 100 -25 155 3 67 33 80 67 80 205 0 115 9 152 35 152 8 0 15 5
15 10 0 6 -30 10 -71 10 -44 0 -68 -4 -64 -10 3 -5 13 -10 20 -10 29 0 37 -40
33 -166 -3 -118 -4 -125 -29 -150 -33 -32 -92 -37 -132 -11 -36 23 -47 72 -47
205 0 111 0 113 25 122 14 5 25 12 25 15 0 3 -39 5 -86 5 -54 0 -83 -4 -79
-10z"/>
<path d="M3115 2870 c3 -5 13 -10 21 -10 12 0 14 -29 14 -175 0 -168 -1 -175
-20 -175 -11 0 -20 -4 -20 -10 0 -6 37 -10 90 -10 50 0 90 4 90 9 0 5 -12 11
-27 13 l-28 3 0 170 0 170 26 3 c43 5 72 -40 67 -105 -5 -62 -20 -83 -60 -83
-17 0 -27 -4 -23 -10 10 -16 63 -12 103 9 80 41 90 148 19 191 -27 17 -51 20
-145 20 -73 0 -111 -4 -107 -10z"/>
<path d="M3450 2870 c0 -5 9 -10 20 -10 19 0 20 -7 20 -171 0 -162 -1 -171
-20 -176 -47 -12 -13 -23 72 -23 55 0 88 4 83 9 -6 5 -19 11 -30 13 -19 3 -20
11 -20 173 0 165 1 170 21 173 61 9 99 -104 54 -160 -13 -17 -31 -28 -46 -28
-13 0 -24 -4 -24 -10 0 -14 55 -12 94 4 47 20 76 61 76 108 0 87 -37 108 -190
108 -67 0 -110 -4 -110 -10z"/>
<path d="M4260 2870 c0 -5 9 -10 20 -10 19 0 20 -7 20 -171 0 -162 -1 -171
-20 -176 -45 -12 -15 -23 60 -23 75 0 105 11 60 23 -18 5 -20 14 -20 86 0 74
2 81 20 81 13 0 35 -24 70 -78 70 -110 75 -114 151 -110 l64 3 -37 17 c-25 11
-56 43 -98 98 -33 45 -60 85 -60 90 0 4 7 14 17 21 9 8 22 29 30 47 17 40 2
79 -37 99 -30 15 -240 18 -240 3z m190 -25 c14 -16 18 -104 6 -123 -4 -7 -23
-12 -42 -12 l-34 0 0 68 c0 38 3 72 7 75 12 12 50 7 63 -8z"/>
<path d="M1572 2334 c-88 -45 -132 -152 -101 -245 40 -119 169 -172 279 -116
132 66 146 246 27 341 -32 26 -48 31 -105 34 -48 2 -76 -2 -100 -14z"/>
<path d="M2121 2208 c-4 -13 -18 -49 -30 -81 -11 -32 -21 -60 -21 -62 0 -12
41 -3 46 10 4 8 18 15 34 15 16 0 30 -7 34 -15 5 -13 46 -23 46 -11 0 2 -14
41 -31 85 -24 63 -35 81 -50 81 -11 0 -23 -10 -28 -22z"/>
<path d="M2265 2218 c-6 -17 -25 -128 -25 -145 0 -7 9 -13 20 -13 13 0 20 7
20 19 0 11 3 27 7 37 5 14 9 11 18 -17 16 -46 44 -46 60 1 l12 35 7 -37 c5
-29 12 -38 26 -38 23 0 23 1 7 95 -10 58 -16 71 -33 73 -16 2 -23 -6 -35 -45
l-15 -48 -15 45 c-15 44 -44 65 -54 38z"/>
<path d="M2489 2203 c-40 -104 -49 -129 -49 -135 0 -15 38 -8 44 7 3 9 18 15
35 15 16 0 31 -6 35 -15 3 -8 15 -15 27 -15 16 0 20 4 14 18 -4 9 -18 47 -32
85 -28 75 -55 89 -74 40z"/>
<path d="M2620 2145 c0 -78 2 -85 20 -85 17 0 20 7 20 43 l0 42 28 -42 c15
-24 35 -43 45 -43 15 0 17 11 17 85 0 78 -2 85 -20 85 -17 0 -20 -7 -20 -42
l-1 -43 -25 43 c-16 26 -33 42 -45 42 -17 0 -19 -8 -19 -85z"/>
<path d="M2790 2145 l0 -85 45 0 c38 0 45 3 45 20 0 15 -7 20 -25 20 -16 0
-25 6 -25 15 0 9 9 15 25 15 18 0 25 5 25 20 0 15 -7 20 -25 20 -14 0 -25 5
-25 10 0 6 11 10 25 10 18 0 25 5 25 20 0 17 -7 20 -45 20 l-45 0 0 -85z"/>
<path d="M2890 2210 c0 -11 7 -20 15 -20 12 0 15 -14 15 -65 0 -58 2 -65 20
-65 18 0 20 7 20 65 0 51 3 65 15 65 8 0 15 9 15 20 0 17 -7 20 -50 20 -43 0
-50 -3 -50 -20z"/>
<path d="M3078 2153 c-8 -43 -11 -82 -7 -87 15 -18 39 3 39 34 0 38 16 31 25
-10 5 -21 13 -30 26 -30 10 0 19 4 19 9 0 5 5 22 12 38 l11 28 6 -35 c4 -22
12 -36 24 -38 21 -4 22 14 6 105 -9 51 -15 63 -30 63 -13 0 -22 -12 -30 -40
-7 -22 -15 -40 -19 -40 -4 0 -12 18 -19 40 -8 28 -17 40 -30 40 -16 0 -21 -14
-33 -77z"/>
<path d="M3280 2144 l0 -87 47 6 c56 6 83 33 83 84 0 49 -37 83 -90 83 l-40 0
0 -86z m80 27 c14 -27 13 -37 -6 -55 -25 -26 -34 -19 -34 29 0 49 20 62 40 26z"/>
<path d="M0 2130 c0 -7 220 -10 640 -10 420 0 640 3 640 10 0 7 -220 10 -640
10 -420 0 -640 -3 -640 -10z"/>
<path d="M3730 2130 c0 -7 220 -10 640 -10 420 0 640 3 640 10 0 7 -220 10
-640 10 -420 0 -640 -3 -640 -10z"/>
<path d="M3005 2090 c-8 -13 3 -30 20 -30 14 0 27 24 18 34 -10 9 -31 7 -38
-4z"/>
</g>
</svg>
